<svg width="199px" height="64px" viewBox="0 0 199 64" version="1.1" xmlns="http://www.w3.org/2000/svg" xmlns:xlink="http://www.w3.org/1999/xlink">
    <defs>
        <linearGradient x1="50%" y1="0%" x2="50%" y2="100%" id="linearGradient-1">
            <stop stop-color="#FF4272" offset="0%"></stop>
            <stop stop-color="#FF1D3C" offset="100%"></stop>
        </linearGradient>
    </defs>
    <g stroke="none" stroke-width="1" fill="none" fill-rule="evenodd">
        <g transform="translate(-306.000000, -101.000000)">
            <g transform="translate(306.256410, 101.000000)">
                <g transform="translate(16.000000, 12.000000)" fill-rule="nonzero">
                    <path d="M30.6701921,40 L9.32980787,40 C4.17697867,40 0,35.8227863 0,30.6701921 L0,9.32980787 C0,4.17697867 4.1772137,0 9.32980787,0 L30.6701921,0 C35.8230213,0 40,4.1772137 40,9.32980787 L40,30.6701921 C40,35.8227863 35.8227863,40 30.6701921,40 Z" fill="url(#linearGradient-1)"></path>
                    <g transform="translate(6.676667, 10.401333)" fill="#FFFFFF">
                        <path d="M20.9057211,0.0749466527 C22.8258821,0.0751779693 24.7462743,0.075409286 26.6666667,0.0756406033 L26.6666667,12.8440983 C26.6666667,12.8440983 26.5359727,15.0598821 25.5792463,16.3800073 C25.3202093,16.7373349 25.0118659,17.0547823 24.9445097,17.1229336 L24.9322283,17.1352863 C24.9314787,17.1360341 24.9310965,17.1364133 24.9310965,17.1364133 C24.8105804,17.2562355 24.4400109,17.6140826 23.887395,17.9691539 C23.2200459,18.397784 22.5274833,18.6677307 21.8117891,18.8604177 C21.4139241,18.967286 20.4747778,19.1939765 17.6839403,19.2007255 C16.711253,19.2027665 16.0022669,19.1770904 15.478103,19.1389231 C15.4764534,18.7832792 15.4738628,18.2040819 15.4712756,17.6142629 L15.4704739,17.4311104 C15.4678975,16.8413726 15.4654223,16.2630406 15.4639927,15.9090462 C15.4626709,15.6114186 15.4605622,15.076442 15.4584911,14.5301381 L15.4578717,14.3661332 C15.4558163,13.8198241 15.4538808,13.2847899 15.4528895,12.9870521 C15.4639927,12.8073189 15.4602916,12.4823187 15.3120175,12.118226 C15.2835655,12.048831 15.1681384,11.7758771 14.9083696,11.497603 C14.623156,11.1911082 14.3205935,11.0500049 13.9972126,10.8968732 C13.8056823,10.806197 13.5782979,10.7164461 13.23965,10.6239193 C12.8274434,10.5110367 12.1980303,10.3791861 11.3745424,10.3565171 C11.7492757,10.2848089 13.4617142,9.9156272 14.5419637,8.31491473 C15.0800067,7.5175656 15.2650602,6.70564353 15.318957,6.06258277 C15.3210389,7.95637367 15.3231207,9.85016453 15.3252025,11.7437241 C15.3309855,11.9766601 15.3809499,12.9514293 16.135968,13.7011271 C16.6166444,14.1781024 17.1715735,14.3552911 17.3425166,14.4036363 C17.7006627,14.5047387 17.9868131,14.511608 18.0860493,14.5118829 L18.1377839,14.5118926 C19.6665568,14.5118926 20.9057211,13.272497 20.9057211,11.7439554 L20.9057211,0.0749466527 Z M10.7513749,0.00485765341 C11.3356812,0.016192178 11.9264644,0.0238256334 12.5241871,0.0272953858 C13.4702729,0.0328469897 14.3997039,0.0279893363 15.3122488,0.0141103265 C15.3140993,1.69347051 15.3159499,3.37259937 15.3178004,5.05195954 C15.2842595,4.55740416 15.1278893,2.93679846 13.8024439,1.57411102 C12.6393829,0.378896966 11.2614285,0.0858185433 10.7513749,0.00485765341 Z" opacity="0.804493495"></path>
                        <path d="M9.56379427,0 L9.56379427,13.0333154 C9.5684206,13.4744366 9.6174598,14.2387074 9.90683713,15.0911099 C9.87676593,15.024722 9.84068053,14.9541703 9.79696167,14.8819995 C9.7430648,14.7929425 9.64267333,14.6432805 9.44697927,14.4538321 C9.0468012,14.066839 8.61053767,13.8653621 8.4955732,13.8135471 L8.47848453,13.8059306 L8.47848453,13.8059306 L8.44425553,13.7909841 C8.0842426,13.6360215 7.69989587,13.542612 6.802334,13.4489917 C6.28649746,13.3950949 5.6135968,13.3423547 4.81763559,13.3270878 C4.83267119,15.2682986 4.8479381,17.2090468 4.86320501,19.1500263 L0,19.1428555 L0,19.1428555 L0,0 L9.56379427,0 Z M10.4997022,0 C10.5834389,0.00185053463 10.6674069,0.00346975243 10.7516062,0.00508897023 C11.2616598,0.0858185433 12.6396141,0.379128283 13.8024439,1.57434234 C15.0672843,2.87457423 15.2676047,4.40982403 15.3124801,4.97724421 L15.3124801,6.13475362 C15.2509499,6.76578593 15.0603448,7.5471742 14.5421951,8.31491473 C13.4619455,9.9156272 11.7497383,10.2848089 11.3747737,10.3565171 C12.1982617,10.3791861 12.8279061,10.5110367 13.2398813,10.6239193 C13.5785292,10.7164461 13.8059136,10.806197 13.9974439,10.8968732 C14.3208249,11.0497736 14.6233873,11.1911082 14.9086009,11.497603 C15.1681384,11.7758771 15.2837969,12.048831 15.3122488,12.118226 C15.4605229,12.4825501 15.4642239,12.8073189 15.4531207,12.9870521 C15.4554339,13.6123014 15.4616795,15.2840281 15.4642239,15.9090462 C15.4654981,16.2509401 15.4677957,16.8018693 15.4702443,17.3702457 L15.4707711,17.4922379 L15.4707711,17.4922379 L15.4713005,17.6143452 C15.4738628,18.2041341 15.4764534,18.7832792 15.478103,19.1389231 C14.6021061,19.074617 14.2414832,18.9751508 14.0282091,18.9101507 C12.8422477,18.5502218 12.1337243,18.0332287 11.8910729,17.8460933 C11.5646849,17.5944207 11.0962683,17.1803635 10.6773535,16.5972138 C10.3831185,16.1873204 10.165912,15.767249 10.0060721,15.361288 C9.984097,15.2844908 9.95263787,15.1921954 9.90706847,15.0911099 C9.6174598,14.2387074 9.56865193,13.4744366 9.5640256,13.0333154 L9.5640256,0 L10.4997022,0 Z M9.90683713,15.0913412 C9.95286516,15.1924267 9.98487456,15.2847221 10.0068371,15.3615193 C9.97062222,15.2706118 9.93744464,15.1803982 9.90683713,15.0913412 Z M11.6417009,5.59235099 L5.42721988,2.52347147 C5.07557743,2.35084699 4.66,2.60658695 4.66,3.00298389 L4.66,9.13434947 C4.66,9.5307464 5.07557743,9.78648633 5.42721988,9.61386187 L11.6417009,6.54498234 C12.0380979,6.35317737 12.0380979,5.78415596 11.6417009,5.59235099 Z"></path>
                    </g>
                </g>
                <g transform="translate(68.298295, 14.272727)" fill="#212223" fill-rule="nonzero">
                    <path d="M0,10.8366477 L0,7.61079545 L0.575284091,7.61079545 C0.771306818,7.44602273 0.954545455,7.21164773 1.125,6.90767045 C1.29545455,6.60369318 1.44034091,6.19318182 1.55965909,5.67613636 C1.67897727,5.15909091 1.76136364,4.49573864 1.80681818,3.68607955 L2.01136364,0 L7.39346591,0 L7.39346591,7.61079545 L8.38210227,7.61079545 L8.38210227,10.8238636 L7.12073864,10.8238636 L7.12073864,8.72727273 L1.26136364,8.72727273 L1.26136364,10.8366477 L0,10.8366477 Z M2.12642045,7.61079545 L6.13210227,7.61079545 L6.13210227,1.13352273 L3.20454545,1.13352273 L3.06818182,3.68607955 C3.03125,4.30255682 2.97088068,4.85653409 2.88707386,5.34801136 C2.80326705,5.83948864 2.69673295,6.2734375 2.56747159,6.64985795 C2.43821023,7.02627841 2.29119318,7.34659091 2.12642045,7.61079545 Z"></path>
                    <path d="M12.4789862,8.859375 C11.8653499,8.859375 11.3298385,8.71875 10.8724521,8.4375 C10.4150658,8.15625 10.0599521,7.76278409 9.80711122,7.25710227 C9.55427031,6.75142045 9.42784986,6.16051136 9.42784986,5.484375 C9.42784986,4.80539773 9.55427031,4.21164773 9.80711122,3.703125 C10.0599521,3.19460227 10.4150658,2.79971591 10.8724521,2.51846591 C11.3298385,2.23721591 11.8653499,2.09659091 12.4789862,2.09659091 C13.0926226,2.09659091 13.6281339,2.23721591 14.0855203,2.51846591 C14.5429067,2.79971591 14.8980203,3.19460227 15.1508612,3.703125 C15.4037021,4.21164773 15.5301226,4.80539773 15.5301226,5.484375 C15.5301226,6.16051136 15.4037021,6.75142045 15.1508612,7.25710227 C14.8980203,7.76278409 14.5429067,8.15625 14.0855203,8.4375 C13.6281339,8.71875 13.0926226,8.859375 12.4789862,8.859375 Z M12.4832476,7.78977273 C12.8809749,7.78977273 13.2105203,7.68465909 13.4718839,7.47443182 C13.7332476,7.26420455 13.9271396,6.984375 14.0535601,6.63494318 C14.1799805,6.28551136 14.2431908,5.90056818 14.2431908,5.48011364 C14.2431908,5.0625 14.1799805,4.67826705 14.0535601,4.32741477 C13.9271396,3.9765625 13.7332476,3.69460227 13.4718839,3.48153409 C13.2105203,3.26846591 12.8809749,3.16193182 12.4832476,3.16193182 C12.0826794,3.16193182 11.7510033,3.26846591 11.4882192,3.48153409 C11.2254351,3.69460227 11.0308328,3.9765625 10.9044124,4.32741477 C10.7779919,4.67826705 10.7147817,5.0625 10.7147817,5.48011364 C10.7147817,5.90056818 10.7779919,6.28551136 10.9044124,6.63494318 C11.0308328,6.984375 11.2254351,7.26420455 11.4882192,7.47443182 C11.7510033,7.68465909 12.0826794,7.78977273 12.4832476,7.78977273 Z"></path>
                    <path d="M19.7062631,8.859375 C19.0727404,8.859375 18.5279961,8.71519886 18.0720302,8.42684659 C17.6160642,8.13849432 17.2659222,7.74005682 17.021604,7.23153409 C16.7772858,6.72301136 16.6551267,6.140625 16.6551267,5.484375 C16.6551267,4.81960227 16.7801267,4.23224432 17.0301267,3.72230114 C17.2801267,3.21235795 17.6323995,2.81392045 18.0869449,2.52698864 C18.5414904,2.24005682 19.0770017,2.09659091 19.693479,2.09659091 C20.1906381,2.09659091 20.6338199,2.18821023 21.0230245,2.37144886 C21.412229,2.5546875 21.7268597,2.81107955 21.9669165,3.140625 C22.2069733,3.47017045 22.349729,3.85511364 22.3951836,4.29545455 L21.1551267,4.29545455 C21.0869449,3.98863636 20.9314052,3.72443182 20.6885074,3.50284091 C20.4456097,3.28125 20.1210358,3.17045455 19.7147858,3.17045455 C19.3596722,3.17045455 19.0493029,3.26349432 18.7836779,3.44957386 C18.5180529,3.63565341 18.3113767,3.89985795 18.1636495,4.2421875 C18.0159222,4.58451705 17.9420586,4.98863636 17.9420586,5.45454545 C17.9420586,5.93181818 18.0145017,6.34375 18.1593881,6.69034091 C18.3042745,7.03693182 18.5095302,7.30539773 18.7751552,7.49573864 C19.0407802,7.68607955 19.3539904,7.78125 19.7147858,7.78125 C19.9562631,7.78125 20.1757233,7.73650568 20.3731665,7.64701705 C20.5706097,7.55752841 20.7368029,7.42897727 20.8717461,7.26136364 C21.0066892,7.09375 21.1011495,6.89204545 21.1551267,6.65625 L22.3951836,6.65625 C22.349729,7.07954545 22.2119449,7.45738636 21.9818313,7.78977273 C21.7517177,8.12215909 21.4441892,8.38352273 21.0592461,8.57386364 C20.6743029,8.76420455 20.2233086,8.859375 19.7062631,8.859375 Z"></path>
                    <polygon points="23.3974634 3.28125 23.3974634 2.18181818 28.9201906 2.18181818 28.9201906 3.28125 26.7852475 3.28125 26.7852475 8.72727273 25.5409293 8.72727273 25.5409293 3.28125"></polygon>
                    <path d="M31.0738896,11.1818182 C30.8835487,11.1818182 30.7102533,11.1669034 30.5540033,11.1370739 C30.3977533,11.1072443 30.281276,11.0752841 30.2045715,11.0411932 L30.5113896,9.99715909 C30.7443442,10.0596591 30.9517306,10.0866477 31.1335487,10.078125 C31.3153669,10.0696023 31.4765885,10.0014205 31.6172135,9.87357955 C31.7578385,9.74573864 31.8821283,9.53693182 31.9900828,9.24715909 L32.1477533,8.8125 L29.7528669,2.18181818 L31.1165033,2.18181818 L32.7741737,7.26136364 L32.8423556,7.26136364 L34.500026,2.18181818 L35.8679237,2.18181818 L33.1704806,9.60085227 C33.0454806,9.94176136 32.8863896,10.2308239 32.6932078,10.4680398 C32.500026,10.7052557 32.2699124,10.8835227 32.0028669,11.0028409 C31.7358215,11.1221591 31.4261624,11.1818182 31.0738896,11.1818182 Z"></path>
                    <polygon points="37.0662263 8.72727273 37.0662263 2.18181818 42.4057149 2.18181818 42.4057149 8.72727273 41.1571354 8.72727273 41.1571354 3.28125 38.3062831 3.28125 38.3062831 8.72727273"></polygon>
                    <path d="M48.5523096,4.90482955 L48.5523096,6.00852273 L45.006855,6.00852273 L45.006855,4.90482955 L48.5523096,4.90482955 Z M45.3648096,2.18181818 L45.3648096,8.72727273 L44.11623,8.72727273 L44.11623,2.18181818 L45.3648096,2.18181818 Z M49.4429346,2.18181818 L49.4429346,8.72727273 L48.1986164,8.72727273 L48.1986164,2.18181818 L49.4429346,2.18181818 Z"></path>
                    <path d="M53.8994709,8.859375 C53.2858346,8.859375 52.7503232,8.71875 52.2929368,8.4375 C51.8355505,8.15625 51.4804368,7.76278409 51.2275959,7.25710227 C50.974755,6.75142045 50.8483346,6.16051136 50.8483346,5.484375 C50.8483346,4.80539773 50.974755,4.21164773 51.2275959,3.703125 C51.4804368,3.19460227 51.8355505,2.79971591 52.2929368,2.51846591 C52.7503232,2.23721591 53.2858346,2.09659091 53.8994709,2.09659091 C54.5131073,2.09659091 55.0486187,2.23721591 55.506005,2.51846591 C55.9633914,2.79971591 56.318505,3.19460227 56.5713459,3.703125 C56.8241868,4.21164773 56.9506073,4.80539773 56.9506073,5.484375 C56.9506073,6.16051136 56.8241868,6.75142045 56.5713459,7.25710227 C56.318505,7.76278409 55.9633914,8.15625 55.506005,8.4375 C55.0486187,8.71875 54.5131073,8.859375 53.8994709,8.859375 Z M53.9037323,7.78977273 C54.3014596,7.78977273 54.631005,7.68465909 54.8923687,7.47443182 C55.1537323,7.26420455 55.3476243,6.984375 55.4740448,6.63494318 C55.6004653,6.28551136 55.6636755,5.90056818 55.6636755,5.48011364 C55.6636755,5.0625 55.6004653,4.67826705 55.4740448,4.32741477 C55.3476243,3.9765625 55.1537323,3.69460227 54.8923687,3.48153409 C54.631005,3.26846591 54.3014596,3.16193182 53.9037323,3.16193182 C53.5031641,3.16193182 53.171488,3.26846591 52.9087039,3.48153409 C52.6459198,3.69460227 52.4513175,3.9765625 52.3248971,4.32741477 C52.1984766,4.67826705 52.1352664,5.0625 52.1352664,5.48011364 C52.1352664,5.90056818 52.1984766,6.28551136 52.3248971,6.63494318 C52.4513175,6.984375 52.6459198,7.26420455 52.9087039,7.47443182 C53.171488,7.68465909 53.5031641,7.78977273 53.9037323,7.78977273 Z"></path>
                    <path d="M61.5469062,8.72727273 L61.5469062,2.18181818 L64.2613948,2.18181818 C65.0000312,2.18181818 65.5852585,2.33877841 66.0170767,2.65269886 C66.4488948,2.96661932 66.6648039,3.39204545 66.6648039,3.92897727 C66.6648039,4.3125 66.5426448,4.61647727 66.2983267,4.84090909 C66.0540085,5.06534091 65.7301448,5.21590909 65.3267358,5.29261364 C65.6193494,5.32670455 65.8878153,5.4140625 66.1321335,5.5546875 C66.3764517,5.6953125 66.5731846,5.88352273 66.7223323,6.11931818 C66.8714801,6.35511364 66.9460539,6.63636364 66.9460539,6.96306818 C66.9460539,7.30965909 66.8565653,7.61576705 66.677588,7.88139205 C66.4986108,8.14701705 66.2393778,8.35440341 65.8998892,8.50355114 C65.5604005,8.65269886 65.1520198,8.72727273 64.6747471,8.72727273 L61.5469062,8.72727273 Z M62.7443494,7.66193182 L64.6747471,7.66193182 C64.990088,7.66193182 65.2372471,7.58664773 65.4162244,7.43607955 C65.5952017,7.28551136 65.6846903,7.08096591 65.6846903,6.82244318 C65.6846903,6.51846591 65.5952017,6.27911932 65.4162244,6.10440341 C65.2372471,5.9296875 64.990088,5.84232955 64.6747471,5.84232955 L62.7443494,5.84232955 L62.7443494,7.66193182 Z M62.7443494,4.90909091 L64.2741789,4.90909091 C64.5128153,4.90909091 64.718071,4.875 64.889946,4.80681818 C65.061821,4.73863636 65.1939233,4.64133523 65.2862528,4.51491477 C65.3785823,4.38849432 65.4247471,4.23863636 65.4247471,4.06534091 C65.4247471,3.8125 65.3210539,3.61505682 65.1136676,3.47301136 C64.9062812,3.33096591 64.6221903,3.25994318 64.2613948,3.25994318 L62.7443494,3.25994318 L62.7443494,4.90909091 Z"></path>
                </g>
                <g transform="translate(68.837713, 31.272727)" fill="#212223" fill-rule="nonzero">
                    <path d="M0,16.7272727 L0,0 L5.96235795,0 C7.25828598,0 8.33504972,0.223248106 9.19264915,0.669744318 C10.0502486,1.11624053 10.6914062,1.73289536 11.1161222,2.51970881 C11.5408381,3.30652225 11.753196,4.21448864 11.753196,5.24360795 C11.753196,6.2672822 11.5394768,7.16708097 11.1120384,7.94300426 C10.6845999,8.71892756 10.042081,9.3219697 9.18448153,9.75213068 C8.3268821,10.1822917 7.25011837,10.3973722 5.95419034,10.3973722 L1.4375,10.3973722 L1.4375,8.22478693 L5.72549716,8.22478693 C6.54225852,8.22478693 7.20791903,8.1077178 7.72247869,7.87357955 C8.23703835,7.63944129 8.61410985,7.29912405 8.85369318,6.85262784 C9.09327652,6.40613163 9.21306818,5.86979167 9.21306818,5.24360795 C9.21306818,4.61197917 9.09191525,4.06474905 8.84960938,3.60191761 C8.6073035,3.13908617 8.22887074,2.78379498 7.71431108,2.53604403 C7.19975142,2.28829309 6.5259233,2.16441761 5.6928267,2.16441761 L2.52379261,2.16441761 L2.52379261,16.7272727 L0,16.7272727 Z M8.25745739,9.18039773 L12.3902699,16.7272727 L9.51526989,16.7272727 L5.46413352,9.18039773 L8.25745739,9.18039773 Z"></path>
                    <path d="M23.0561867,11.5245028 L23.0561867,4.18181818 L25.5064708,4.18181818 L25.5064708,16.7272727 L23.1051924,16.7272727 L23.1051924,14.5546875 L22.9745105,14.5546875 C22.6859215,15.2244318 22.2244514,15.7811908 21.5901,16.2249645 C20.9557487,16.6687382 20.167574,16.890625 19.2255759,16.890625 C18.4197047,16.890625 17.707761,16.7122988 17.0897449,16.3556463 C16.4717288,15.9989938 15.9871171,15.4694602 15.6359097,14.7670455 C15.2847023,14.0646307 15.1090986,13.1961411 15.1090986,12.1615767 L15.1090986,4.18181818 L17.5512151,4.18181818 L17.5512151,11.8675426 C17.5512151,12.7224195 17.7880759,13.403054 18.2617975,13.909446 C18.7355191,14.4158381 19.3508126,14.6690341 20.1076782,14.6690341 C20.5650645,14.6690341 21.0210896,14.5546875 21.4757534,14.3259943 C21.9304173,14.0973011 22.30885,13.7515388 22.6110517,13.2887074 C22.9132534,12.8258759 23.0616318,12.2378078 23.0561867,11.5245028 Z"></path>
                    <polygon points="29.4309928 0 32.4938479 0 37.819132 13.0028409 38.0151547 13.0028409 43.3404388 0 46.4032939 0 46.4032939 16.7272727 44.0020155 16.7272727 44.0020155 4.62286932 43.8468308 4.62286932 38.9135922 16.7027699 36.9206945 16.7027699 31.9874558 4.6147017 31.8322712 4.6147017 31.8322712 16.7272727 29.4309928 16.7272727"></polygon>
                    <path d="M53.7518146,17.0049716 C52.9568335,17.0049716 52.2380835,16.8565933 51.5955646,16.5598366 C50.9530456,16.26308 50.4452923,15.8315578 50.0723046,15.2652699 C49.6993169,14.698982 49.5128231,14.0047348 49.5128231,13.1825284 C49.5128231,12.4746686 49.64895,11.8920455 49.9212038,11.4346591 C50.1934576,10.9772727 50.5610002,10.6151752 51.0238316,10.3483665 C51.486663,10.0815578 52.0039452,9.88008996 52.5756782,9.74396307 C53.1474112,9.60783617 53.7300343,9.50437973 54.3235475,9.43359375 C55.074968,9.34647254 55.6848165,9.27432528 56.153093,9.21715199 C56.6213695,9.15997869 56.9616867,9.06605114 57.1740447,8.93536932 C57.3864026,8.8046875 57.4925816,8.59232955 57.4925816,8.29829545 L57.4925816,8.24112216 C57.4925816,7.52781723 57.2924751,6.97514205 56.892262,6.58309659 C56.4920489,6.19105114 55.8971744,5.99502841 55.1076384,5.99502841 C54.285432,5.99502841 53.6388292,6.17607718 53.1678302,6.53817472 C52.6968311,6.90027225 52.3714879,7.30184659 52.1918004,7.74289773 L49.8967009,7.22017045 C50.1689547,6.45785985 50.5678065,5.84120502 51.0932563,5.37020597 C51.6187061,4.89920691 52.2244708,4.55616714 52.9105504,4.34108665 C53.5966299,4.12600616 54.3181024,4.01846591 55.074968,4.01846591 C55.5759149,4.01846591 56.1081711,4.07700047 56.6717364,4.1940696 C57.2353018,4.31113873 57.7634741,4.52485795 58.2562535,4.83522727 C58.7490328,5.14559659 59.1533297,5.588009 59.4691441,6.16246449 C59.7849585,6.73691998 59.9428657,7.48153409 59.9428657,8.39630682 L59.9428657,16.7272727 L57.5579225,16.7272727 L57.5579225,15.0120739 L57.4599112,15.0120739 C57.302004,15.3278883 57.0651432,15.6382576 56.7493288,15.9431818 C56.4335144,16.2481061 56.0278562,16.5013021 55.5323543,16.7027699 C55.0368524,16.9042377 54.4433392,17.0049716 53.7518146,17.0049716 Z M54.2827094,15.0447443 C54.9578988,15.0447443 55.5364381,14.91134 56.0183273,14.6445313 C56.5002165,14.3777225 56.8677592,14.0278764 57.1209552,13.5949929 C57.3741512,13.1621094 57.5007492,12.6979167 57.5007492,12.2024148 L57.5007492,10.5852273 C57.413628,10.6723485 57.2461919,10.7526634 56.998441,10.8261719 C56.75069,10.8996804 56.4689074,10.9622988 56.153093,11.014027 C55.8372786,11.0657552 55.5296318,11.1120384 55.2301526,11.1528764 C54.9306735,11.1937145 54.6802,11.2277462 54.4787322,11.2549716 C54.0050106,11.3148674 53.5734883,11.4156013 53.1841654,11.5571733 C52.7948425,11.6987453 52.4844732,11.9015743 52.2530575,12.1656605 C52.0216417,12.4297467 51.9059339,12.7795928 51.9059339,13.2151989 C51.9059339,13.8196023 52.129182,14.2756274 52.5756782,14.5832741 C53.0221744,14.8909209 53.5911848,15.0447443 54.2827094,15.0447443 Z"></path>
                    <path d="M63.308853,16.7272727 L63.308853,4.18181818 L65.6692934,4.18181818 L65.6692934,6.17471591 L65.7999752,6.17471591 C66.0286684,5.49952652 66.4329652,4.96727036 67.0128658,4.57794744 C67.5927664,4.18862453 68.2502593,3.99396307 68.9853445,3.99396307 C69.1378066,3.99396307 69.3188554,3.99940814 69.5284908,4.0102983 C69.7381262,4.02118845 69.9028398,4.03480114 70.0226314,4.05113636 L70.0226314,6.38707386 C69.9246201,6.35984848 69.7503776,6.3285393 69.4999042,6.29314631 C69.2494307,6.25775331 68.9989572,6.24005682 68.7484837,6.24005682 C68.1713057,6.24005682 67.6581073,6.36120975 67.2088885,6.60351563 C66.7596698,6.8458215 66.4043786,7.18069366 66.143015,7.6081321 C65.8816513,8.03557055 65.7509695,8.52154356 65.7509695,9.06605114 L65.7509695,16.7272727 L63.308853,16.7272727 Z"></path>
                    <path d="M74.5092249,12.471946 L74.4928897,9.49076705 L74.9176056,9.49076705 L79.9161852,4.18181818 L82.8401908,4.18181818 L77.1391965,10.2258523 L76.7553187,10.2258523 L74.5092249,12.471946 Z M72.2631312,16.7272727 L72.2631312,0 L74.7052477,0 L74.7052477,16.7272727 L72.2631312,16.7272727 Z M80.1857164,16.7272727 L75.6935289,10.7649148 L77.3760573,9.05788352 L83.1832306,16.7272727 L80.1857164,16.7272727 Z"></path>
                    <path d="M90.0613018,16.9804688 C88.8252696,16.9804688 87.7621185,16.7150213 86.8718486,16.1841264 C85.9815788,15.6532315 85.2954992,14.9045336 84.81361,13.9380327 C84.3317208,12.9715317 84.0907762,11.8375947 84.0907762,10.5362216 C84.0907762,9.25118371 84.3317208,8.11860795 84.81361,7.13849432 C85.2954992,6.15838068 85.9706886,5.39334754 86.8391782,4.84339489 C87.7076678,4.29344223 88.7245357,4.01846591 89.8897819,4.01846591 C90.5976417,4.01846591 91.2837213,4.13553504 91.9480205,4.3696733 C92.6123198,4.60381155 93.2085556,4.97135417 93.7367279,5.47230114 C94.2649003,5.97324811 94.6814485,6.62257339 94.9863728,7.42027699 C95.291297,8.21798059 95.4437592,9.1858428 95.4437592,10.3238636 L95.4437592,11.1896307 L85.4711029,11.1896307 L85.4711029,9.36008523 L93.0506484,9.36008523 C93.0506484,8.71756629 92.9199665,8.1471946 92.6586029,7.64897017 C92.3972393,7.15074574 92.0310579,6.75733902 91.5600589,6.46875 C91.0890598,6.18016098 90.5377459,6.03586648 89.9061171,6.03586648 C89.2200376,6.03586648 88.6224405,6.20330256 88.1133259,6.53817472 C87.6042113,6.87304688 87.2121659,7.30865294 86.9371896,7.8449929 C86.6622132,8.38133286 86.5247251,8.9625947 86.5247251,9.58877841 L86.5247251,11.0181108 C86.5247251,11.8566525 86.6731034,12.5699574 86.96986,13.1580256 C87.2666166,13.7460938 87.6818037,14.1939512 88.2154211,14.501598 C88.7490385,14.8092448 89.3724997,14.9630682 90.0858046,14.9630682 C90.548636,14.9630682 90.9706294,14.896366 91.3517847,14.7629616 C91.73294,14.6295573 92.0623671,14.4294508 92.340066,14.162642 C92.6177648,13.8958333 92.8301228,13.5664063 92.9771398,13.1743608 L95.2885745,13.5909091 C95.1034419,14.2715436 94.7726536,14.8664181 94.2962094,15.3755327 C93.8197653,15.8846473 93.2235295,16.2794152 92.5075021,16.5598366 C91.7914746,16.840258 90.9760745,16.9804688 90.0613018,16.9804688 Z"></path>
                    <path d="M104.136664,4.18181818 L104.136664,6.14204545 L97.2840359,6.14204545 L97.2840359,4.18181818 L104.136664,4.18181818 Z M99.1217489,1.17613636 L101.563865,1.17613636 L101.563865,13.043679 C101.563865,13.5174006 101.634651,13.8726918 101.776223,14.1095526 C101.917795,14.3464134 102.101567,14.5070431 102.327537,14.5914418 C102.553508,14.6758404 102.799898,14.7180398 103.066706,14.7180398 C103.262729,14.7180398 103.434249,14.7044271 103.581266,14.6772017 C103.728283,14.6499763 103.84263,14.628196 103.924306,14.6118608 L104.365357,16.6292614 C104.223785,16.6837121 104.022317,16.7395241 103.760953,16.7966974 C103.49959,16.8538707 103.172885,16.8851799 102.78084,16.890625 C102.138321,16.9015152 101.539363,16.7871686 100.983965,16.5475852 C100.428567,16.3080019 99.9793484,15.9377367 99.6363086,15.4367898 C99.2932688,14.9358428 99.1217489,14.3069366 99.1217489,13.550071 L99.1217489,1.17613636 Z"></path>
                </g>
            </g>
        </g>
    </g>
</svg>